<svg width="22" height="22" viewBox="0 0 22 22" fill="none" xmlns="http://www.w3.org/2000/svg">
<path d="M18.9998 1L18.9998 4.99995" stroke="#D9D9D9" stroke-linecap="round"/>
<path d="M18.9998 8.99992V18.9998C18.9998 20.1044 18.1043 20.9998 16.9998 20.9998H2.99997C1.89542 20.9998 1 20.1044 1 18.9998V4.99997C1 3.89542 1.89542 3 2.99997 3H12.9998" stroke="#D9D9D9" stroke-linecap="round" stroke-linejoin="round"/>
<path d="M16.9998 3H20.9997" stroke="#D9D9D9" stroke-linecap="round"/>
<path d="M6.49998 9.99996C7.3284 9.99996 7.99996 9.3284 7.99996 8.49998C7.99996 7.67156 7.3284 7 6.49998 7C5.67156 7 5 7.67156 5 8.49998C5 9.3284 5.67156 9.99996 6.49998 9.99996Z" stroke="#D9D9D9" stroke-linecap="round" stroke-linejoin="round"/>
<path d="M18.9998 14.9994L13.9999 9.99951L3 20.9994" stroke="#D9D9D9" stroke-linecap="round" stroke-linejoin="round"/>
</svg>
