<svg width="20" height="20" viewBox="0 0 20 20" fill="none" xmlns="http://www.w3.org/2000/svg">
<path d="M19 9.50009C19.0034 10.82 18.6951 12.122 18.1 13.3001C17.3944 14.7118 16.3098 15.8993 14.9674 16.7294C13.6251 17.5595 12.0782 17.9995 10.5 18.0001C9.18013 18.0035 7.87812 17.6952 6.7 17.1001L1 19.0001L2.9 13.3001C2.30493 12.122 1.99656 10.82 2 9.50009C2.00061 7.92185 2.44061 6.37494 3.27072 5.03264C4.10083 3.69034 5.28825 2.60566 6.7 1.90009C7.87812 1.30502 9.18013 0.996648 10.5 1.00009H11C13.0843 1.11508 15.053 1.99485 16.5291 3.47095C18.0052 4.94705 18.885 6.91574 19 9.00009V9.50009Z" stroke="black" stroke-linecap="round" stroke-linejoin="round"/>
</svg>
