<svg width="35" height="38" viewBox="0 0 35 38" fill="none" xmlns="http://www.w3.org/2000/svg">
<g opacity="1">
<path d="M22.3894 29.1941C21.1564 30.6931 19.6068 31.7356 17.8011 32.2858C17.1675 32.4781 15.8475 32.6836 15.1782 32.6943C12.2097 32.7384 9.20353 31.3964 7.23142 29.145C7.03023 28.916 6.80413 28.6354 6.72692 28.5276C6.65542 28.4188 6.5884 28.3328 6.57927 28.3313C6.57126 28.3354 6.41672 28.418 6.23014 28.5172C5.57195 28.8683 4.7776 29.0066 4.10311 28.8864C3.5667 28.7945 3.26346 28.6604 2.73965 28.2888C2.36044 28.0233 2.26032 27.9336 2.05012 27.6739C1.29454 26.7389 1.07796 25.5503 1.46283 24.4699C1.7518 23.65 2.52818 22.8975 3.39861 22.5924C3.65712 22.4995 4.17141 22.4194 4.45917 22.4302C4.58023 22.4318 4.68651 22.4182 4.70029 22.3985C4.71178 22.3821 4.73314 22.1916 4.74431 21.9793C4.83505 20.2283 5.57199 18.2597 6.63524 16.9157C8.01654 15.1684 9.82726 13.9712 11.8429 13.4702C12.0842 13.4092 16.1047 12.2627 20.7758 10.9213C25.4504 9.58224 29.3909 8.46279 29.536 8.43726C29.9406 8.36841 30.154 8.41999 30.5229 8.67833C31.0217 9.02758 31.0014 8.96934 31.7069 11.7719C32.0484 13.131 32.3333 14.3528 32.3407 14.4949C32.3576 14.8198 32.2939 15.049 32.0914 15.3963C31.9649 15.6061 31.8765 15.7105 31.7287 15.8271C31.6221 15.9139 30.6423 16.4261 29.5538 16.9699C28.4654 17.5137 26.8619 18.3131 25.9887 18.7531C25.1177 19.19 24.2868 19.6059 24.1437 19.672C24.0007 19.7382 23.8828 19.7975 23.8759 19.8073C23.869 19.8172 23.9309 20.0415 24.0154 20.3061C24.3896 21.5022 24.5355 22.6462 24.4755 23.8808C24.3828 25.8309 23.6682 27.644 22.3894 29.1941ZM21.1542 26.6027C21.5743 25.8355 21.8046 25.1213 21.9191 24.2379C22.0891 22.919 21.9918 21.8873 21.563 20.6529C21.2437 19.7201 21.3068 19.0991 21.7883 18.4042C22.1606 17.8726 22.1606 17.8726 24.7826 16.5783C25.6112 16.1656 27.0682 15.4446 28.0238 14.9741L29.7543 14.1169L29.7286 13.9864C29.6468 13.6015 28.9924 11.1477 28.9673 11.1399C28.9217 11.1324 19.5633 13.8236 19.5403 13.8565C19.5288 13.8729 19.5851 14.0688 19.6652 14.2961C19.9079 14.9747 19.903 15.3234 19.6537 15.6868C19.5261 15.8763 19.4562 15.9398 19.2696 16.039C18.6778 16.3534 17.9317 16.1538 17.6177 15.5916C17.5531 15.473 17.4298 15.191 17.3473 14.967C17.2446 14.6847 17.1766 14.5637 17.132 14.5619C17.0761 14.5618 14.6473 15.2529 13.2899 15.6572C13.0589 15.7254 12.7125 15.8203 12.5135 15.8717C11.2079 16.1949 10.0171 16.892 9.08562 17.8734C8.72656 18.248 8.1646 19.0724 7.9422 19.5427C7.21847 21.0853 7.02574 22.6475 7.36749 24.2172C7.76869 26.0436 8.89238 27.7108 10.4867 28.8223C11.4432 29.4921 12.4568 29.9132 13.6232 30.1234C15.2346 30.4105 16.8106 30.1739 18.2585 29.4221C19.4009 28.8232 20.5477 27.7089 21.1542 26.6027ZM5.30878 25.9939C5.31691 25.9605 5.25964 25.7296 5.18074 25.4788C5.03867 25.0418 5.0296 25.0257 4.87345 24.9506C4.41871 24.7202 3.90952 24.9457 3.7578 25.4459C3.65707 25.7716 3.78808 26.1225 4.08872 26.333C4.23562 26.4359 4.54823 26.513 4.71283 26.4815C4.96656 26.439 5.25997 26.1945 5.30878 25.9939Z" fill="#888888"/>
<path d="M16.4111 24.6511C16.0086 25.0442 15.5314 25.2823 15.0023 25.3471C14.5852 25.3974 14.3614 25.3826 13.9724 25.2618C13.6816 25.1756 13.5801 25.1241 13.2419 24.8873C12.9003 24.6481 12.8207 24.5727 12.6401 24.3289C12.3721 23.9701 12.2589 23.7099 12.1888 23.2793C12.1232 22.8567 12.1357 22.6062 12.2505 22.1878C12.3236 21.9161 12.3789 21.8081 12.5811 21.5193C12.9465 20.9975 13.4023 20.6955 14.0208 20.5612C14.4506 20.4708 14.8514 20.4874 15.2369 20.6057C15.5266 20.701 15.6372 20.7539 15.972 20.9884C16.3136 21.2276 16.3932 21.3029 16.5761 21.5434C17.0417 22.1727 17.1868 22.9835 16.9576 23.718C16.858 24.0347 16.6118 24.459 16.4111 24.6511Z" fill="#888888"/>
</g>
</svg>
