<svg width="24" height="18" viewBox="0 0 24 18" fill="none" xmlns="http://www.w3.org/2000/svg">
<path d="M12.1564 15.6791C11.4664 16.518 10.5992 17.1014 9.5887 17.4093C9.23416 17.5169 8.49546 17.6319 8.1209 17.6379C6.45966 17.6626 4.77739 16.9116 3.67377 15.6517C3.56118 15.5236 3.43465 15.3665 3.39144 15.3062C3.35143 15.2453 3.31392 15.1971 3.30881 15.1963C3.30433 15.1986 3.21785 15.2448 3.11343 15.3004C2.7451 15.4968 2.30057 15.5742 1.92312 15.507C1.62293 15.4555 1.45324 15.3805 1.1601 15.1725C0.947893 15.0239 0.89186 14.9738 0.774228 14.8284C0.351396 14.3052 0.230197 13.6401 0.445573 13.0354C0.607287 12.5766 1.04176 12.1555 1.52887 11.9847C1.67353 11.9328 1.96133 11.888 2.12237 11.894C2.19012 11.8949 2.24959 11.8872 2.25731 11.8762C2.26374 11.867 2.27569 11.7605 2.28194 11.6417C2.33272 10.6618 2.74512 9.56009 3.34013 8.80798C4.11313 7.83016 5.12644 7.1602 6.25443 6.87983C6.38943 6.84571 8.63936 6.20409 11.2534 5.45341C13.8694 4.70406 16.0745 4.0776 16.1558 4.06332C16.3822 4.02479 16.5016 4.05365 16.7081 4.19823C16.9872 4.39367 16.9758 4.36108 17.3706 5.92942C17.5617 6.69002 17.7212 7.37374 17.7253 7.45327C17.7348 7.63507 17.6991 7.76336 17.5858 7.95773C17.515 8.07511 17.4655 8.13354 17.3828 8.19879C17.3232 8.24735 16.7748 8.534 16.1657 8.8383C15.5566 9.1426 14.6593 9.58996 14.1706 9.83624C13.6832 10.0807 13.2182 10.3135 13.1381 10.3505C13.0581 10.3875 12.9921 10.4207 12.9883 10.4262C12.9844 10.4317 13.019 10.5572 13.0663 10.7053C13.2757 11.3747 13.3574 12.0149 13.3238 12.7057C13.2719 13.7971 12.872 14.8117 12.1564 15.6791ZM11.4652 14.229C11.7003 13.7996 11.8291 13.3999 11.8932 12.9056C11.9883 12.1675 11.9339 11.5902 11.6939 10.8994C11.5152 10.3774 11.5506 10.0299 11.82 9.64099C12.0283 9.34346 12.0283 9.34346 13.4957 8.61916C13.9594 8.38823 14.7747 7.98472 15.3095 7.72145L16.2779 7.24175L16.2635 7.16872C16.2178 6.9533 15.8515 5.58014 15.8375 5.57578C15.812 5.57158 10.5749 7.07761 10.562 7.09598C10.5556 7.10516 10.5871 7.2148 10.6319 7.342C10.7677 7.72176 10.765 7.91692 10.6254 8.12028C10.5541 8.22631 10.5149 8.26186 10.4105 8.31739C10.0793 8.49332 9.66179 8.38161 9.48607 8.06697C9.44992 8.0006 9.38092 7.8428 9.33478 7.71744C9.27729 7.55948 9.23922 7.49177 9.2143 7.49075C9.18298 7.49071 7.82381 7.87745 7.06419 8.10373C6.93493 8.14186 6.74104 8.19496 6.62971 8.22375C5.89905 8.40462 5.2327 8.79474 4.7114 9.34391C4.51047 9.55356 4.19599 10.0149 4.07153 10.2781C3.66652 11.1413 3.55866 12.0156 3.74991 12.894C3.97443 13.9161 4.60326 14.8491 5.49545 15.4711C6.03076 15.8459 6.59797 16.0816 7.25068 16.1992C8.15248 16.3599 9.03441 16.2275 9.8447 15.8067C10.484 15.4716 11.1257 14.848 11.4652 14.229ZM2.59783 13.8883C2.60238 13.8696 2.57033 13.7404 2.52617 13.6C2.44667 13.3555 2.44159 13.3464 2.35421 13.3044C2.09973 13.1755 1.81478 13.3017 1.72988 13.5816C1.67351 13.7639 1.74682 13.9603 1.91506 14.0781C1.99727 14.1356 2.17221 14.1787 2.26432 14.1611C2.40631 14.1374 2.57051 14.0005 2.59783 13.8883Z" fill="#688BFF"/>
<path fill-rule="evenodd" clip-rule="evenodd" d="M21.1053 0.213528C21.366 0.379457 21.4429 0.725349 21.277 0.986096L19.3183 4.06398C19.1524 4.32473 18.8065 4.40159 18.5457 4.23566C18.285 4.06973 18.2081 3.72384 18.3741 3.46309L20.3327 0.38521C20.4986 0.124462 20.8445 0.0475965 21.1053 0.213528ZM22.1682 4.12666C22.2768 4.41605 22.1301 4.73861 21.8408 4.84714L19.6023 5.68656C19.3129 5.79508 18.9903 5.64846 18.8818 5.35907C18.7733 5.06968 18.9199 4.74711 19.2093 4.63859L21.4478 3.79917C21.7372 3.69065 22.0597 3.83727 22.1682 4.12666ZM19.1427 6.70569C19.2177 6.40585 19.5215 6.22355 19.8213 6.29851L23.179 7.13794C23.4789 7.2129 23.6612 7.51673 23.5862 7.81657C23.5112 8.11641 23.2074 8.29871 22.9076 8.22375L19.5499 7.38433C19.25 7.30937 19.0677 7.00553 19.1427 6.70569Z" fill="#688BFF"/>
<path d="M8.65498 13.0517C8.42035 13.2842 8.14467 13.4276 7.84127 13.471C7.60209 13.5048 7.47422 13.4986 7.25302 13.4329C7.08756 13.386 7.03009 13.3573 6.83921 13.2236C6.64639 13.0886 6.60166 13.0458 6.50105 12.9064C6.35166 12.7011 6.28981 12.5514 6.25443 12.3024C6.22155 12.058 6.23145 11.9125 6.30176 11.6685C6.34657 11.5101 6.37939 11.4468 6.49827 11.277C6.71307 10.9702 6.97719 10.79 7.3325 10.7053C7.5794 10.6481 7.80853 10.6533 8.0278 10.7177C8.19249 10.7698 8.25516 10.7993 8.44412 10.9316C8.63693 11.0666 8.68166 11.1094 8.78363 11.247C9.04308 11.6069 9.11714 12.0757 8.97789 12.5043C8.91744 12.6892 8.77191 12.938 8.65498 13.0517Z" fill="#688BFF"/>
</svg>
